# xmcd
#
# Track frame offsets: 
#        150
#        18608
#        38048
#        58855
#        74952
#        91236
#        112595
#        132834
#        148994
#        164697
#
# Disc length: 2452 seconds
#
# Revision: 6
# Processed by: cddbd v1.5.1PL2 Copyright (c) Steve Scherf et al.
# Submitted via: ExactAudioCopy v0.95b3
#
DISCID=9409920a
DTITLE=José Mercé - Aire
DYEAR=2000
DGENRE=Flamenco
TTITLE0=Aire (Bulería)
TTITLE1=Vivo Cielo (Alegrías)
TTITLE2=Pendiente (Bulería)
TTITLE3=Y La Vida Sale (Rumba)
TTITLE4=El Café (Soleá)
TTITLE5=Arrengao (Blues)
TTITLE6=La Alcoba Y La Mosca (Tangos)
TTITLE7=Por Lo Mismo (Martinete)
TTITLE8=La Tía María (Fandangos De El Gloria)
TTITLE9=Al Alba
EXTD=
EXTT0=
EXTT1=
EXTT2=
EXTT3=
EXTT4=
EXTT5=
EXTT6=
EXTT7=
EXTT8=
EXTT9=
PLAYORDER=
